<mxfile host="Electron" modified="2024-12-21T03:04:45.800Z" agent="Mozilla/5.0 (Windows NT 10.0; Win64; x64) AppleWebKit/537.36 (KHTML, like Gecko) draw.io/23.1.5 Chrome/120.0.6099.109 Electron/28.1.0 Safari/537.36" etag="yQ8wWtlTJaOJpdPCA29n" version="23.1.5" type="device">
  <diagram name="Page-1" id="2OH2nIm6l84PmxH_NKZM">
    <mxGraphModel dx="1038" dy="554" grid="1" gridSize="10" guides="1" tooltips="1" connect="1" arrows="1" fold="1" page="1" pageScale="1" pageWidth="850" pageHeight="1100" math="0" shadow="0">
      <root>
        <mxCell id="0" />
        <mxCell id="1" parent="0" />
        <mxCell id="WY5DcdyVzjbsttxyZX9W-1" value="&lt;font style=&quot;font-size: 14px;&quot;&gt;Custom Program Running&lt;/font&gt;" style="rounded=0;whiteSpace=wrap;html=1;" vertex="1" parent="1">
          <mxGeometry x="100" y="280" width="120" height="60" as="geometry" />
        </mxCell>
        <mxCell id="WY5DcdyVzjbsttxyZX9W-2" value="" style="endArrow=classic;html=1;rounded=0;exitX=1;exitY=0.5;exitDx=0;exitDy=0;entryX=0;entryY=0.5;entryDx=0;entryDy=0;" edge="1" parent="1" source="WY5DcdyVzjbsttxyZX9W-1" target="WY5DcdyVzjbsttxyZX9W-4">
          <mxGeometry width="50" height="50" relative="1" as="geometry">
            <mxPoint x="330" y="310" as="sourcePoint" />
            <mxPoint x="440" y="310" as="targetPoint" />
          </mxGeometry>
        </mxCell>
        <mxCell id="WY5DcdyVzjbsttxyZX9W-3" value="&lt;font style=&quot;font-size: 14px;&quot;&gt;Button Pressed&lt;/font&gt;" style="edgeLabel;html=1;align=center;verticalAlign=middle;resizable=0;points=[];" vertex="1" connectable="0" parent="WY5DcdyVzjbsttxyZX9W-2">
          <mxGeometry x="-0.0382" y="1" relative="1" as="geometry">
            <mxPoint as="offset" />
          </mxGeometry>
        </mxCell>
        <mxCell id="WY5DcdyVzjbsttxyZX9W-6" style="edgeStyle=orthogonalEdgeStyle;rounded=0;orthogonalLoop=1;jettySize=auto;html=1;exitX=1;exitY=0.5;exitDx=0;exitDy=0;entryX=0;entryY=0.5;entryDx=0;entryDy=0;" edge="1" parent="1" source="WY5DcdyVzjbsttxyZX9W-4" target="WY5DcdyVzjbsttxyZX9W-5">
          <mxGeometry relative="1" as="geometry" />
        </mxCell>
        <mxCell id="WY5DcdyVzjbsttxyZX9W-7" value="Text" style="edgeLabel;html=1;align=center;verticalAlign=middle;resizable=0;points=[];" vertex="1" connectable="0" parent="WY5DcdyVzjbsttxyZX9W-6">
          <mxGeometry x="-0.0457" y="1" relative="1" as="geometry">
            <mxPoint as="offset" />
          </mxGeometry>
        </mxCell>
        <mxCell id="WY5DcdyVzjbsttxyZX9W-4" value="&lt;font style=&quot;font-size: 14px;&quot;&gt;IRQ Handler&lt;/font&gt;" style="rounded=0;whiteSpace=wrap;html=1;" vertex="1" parent="1">
          <mxGeometry x="390" y="280" width="120" height="60" as="geometry" />
        </mxCell>
        <mxCell id="WY5DcdyVzjbsttxyZX9W-5" value="&lt;font style=&quot;font-size: 14px;&quot;&gt;OS Logic&lt;/font&gt;" style="rounded=0;whiteSpace=wrap;html=1;" vertex="1" parent="1">
          <mxGeometry x="650" y="280" width="120" height="60" as="geometry" />
        </mxCell>
      </root>
    </mxGraphModel>
  </diagram>
</mxfile>
